<?xml version="1.0" standalone="no"?>
<!DOCTYPE svg PUBLIC "-//W3C//DTD SVG 20010904//EN"
 "http://www.w3.org/TR/2001/REC-SVG-20010904/DTD/svg10.dtd">
<svg version="1.0" xmlns="http://www.w3.org/2000/svg"
 width="312.000000pt" height="264.000000pt" viewBox="0 0 312.000000 264.000000"
 preserveAspectRatio="xMidYMid meet">
<metadata>
Created by potrace 1.16, written by Peter Selinger 2001-2019
</metadata>
<g transform="translate(0.000000,264.000000) scale(0.100000,-0.100000)"
fill="#000000" stroke="none">
<path d="M479 2543 c-432 -470 -531 -1124 -253 -1687 200 -405 568 -692 1023
-797 127 -30 401 -37 543 -15 412 65 785 303 1014 647 166 249 247 519 248
824 0 256 -43 436 -159 670 -69 139 -140 241 -247 354 l-66 71 -1020 0 -1020
0 -63 -67z m141 -908 l0 -205 -93 0 c-70 0 -100 4 -126 18 -65 35 -89 121 -53
192 23 45 65 69 140 76 l62 7 0 58 0 59 35 0 35 0 0 -205z m420 0 l0 -205 -91
0 c-145 0 -193 35 -193 140 0 92 47 136 160 147 l54 6 0 58 0 59 35 0 35 0 0
-205z m518 -3 l2 -204 -124 4 c-120 3 -126 4 -167 33 -86 61 -110 175 -56 267
47 80 116 108 267 105 l75 -2 3 -203z m277 184 c158 -66 167 -283 16 -363 -38
-20 -58 -23 -153 -23 l-108 0 0 206 0 207 103 -5 c61 -4 118 -12 142 -22z
m489 -4 c62 -36 85 -135 46 -199 -24 -41 -60 -59 -133 -68 l-57 -7 0 -54 0
-54 -40 0 -40 0 0 198 c0 109 3 202 8 206 13 15 183 -3 216 -22z m416 3 c91
-47 93 -202 3 -248 -15 -8 -54 -18 -86 -22 l-57 -7 0 -54 0 -54 -40 0 -40 0 0
198 c0 109 3 202 8 206 12 14 178 -1 212 -19z"/>
<path d="M433 1624 c-21 -21 -24 -32 -19 -62 6 -41 27 -61 65 -64 71 -4 66
-10 69 75 l3 77 -46 0 c-36 0 -51 -6 -72 -26z"/>
<path d="M863 1635 c-45 -32 -36 -115 15 -133 15 -4 41 -8 57 -8 l30 1 3 78 3
77 -43 0 c-24 0 -53 -7 -65 -15z"/>
<path d="M1362 1760 c-106 -25 -134 -169 -46 -237 29 -21 48 -27 100 -29 l64
-3 0 139 0 140 -42 -1 c-24 -1 -58 -5 -76 -9z"/>
<path d="M1662 1634 l3 -139 63 2 c71 1 103 17 132 66 25 41 25 93 0 134 -28
47 -62 65 -135 71 l-66 5 3 -139z"/>
<path d="M2180 1691 l0 -81 40 0 c51 0 90 35 90 78 0 45 -28 71 -82 78 l-48 7
0 -82z"/>
<path d="M2600 1691 l0 -81 39 0 c53 0 91 31 91 75 0 48 -26 74 -82 81 l-48 7
0 -82z"/>
</g>
</svg>
